<?xml version="1.0" encoding="utf-8"?>
<!-- Generator: Adobe Illustrator 26.5.0, SVG Export Plug-In . SVG Version: 6.00 Build 0)  -->
<svg version="1.0" xmlns="http://www.w3.org/2000/svg" xmlns:xlink="http://www.w3.org/1999/xlink" x="0px" y="0px"
	 viewBox="0 0 1080 657.6" style="enable-background:new 0 0 1080 657.6;" xml:space="preserve">
<g id="Layer_1">
	<g>
		<g>
			<g>
				<g>
					<g>
						<g>
							<g>
								<g>
									<path d="M649.6,306.2c-20.2-33.3-45.8-59.3-76.9-78c-11.8-7-23.1-13-33.9-18c-11.2-4.7-23.8-8.2-38-10.5
										c-28.1-5-73.5-5.8-100.6-2.6c-27.1,4.1-53.1,13.9-77.8,29.3C248.7,269.7,211.6,334.5,211,421v223.6h94.1v-96.7v-14.2
										c-0.1-2.9-0.1-5.8,0-8.6v-93c-1.2-49.1,17.4-87.2,55.8-114.1c15.4-13.2,35.5-21.5,60.3-25c24.8-2.6,34-2.6,55.4,0
										c21.8,2.9,39.8,9.8,54,20.6c38.4,24.6,57.6,64.1,57.6,118.5v101.6v14.2v96.7h94.1v-217
										C682.2,379.7,671.3,339.2,649.6,306.2z"/>
								</g>
								<g>
									<path d="M1026.1,306.2c-20.2-33.3-45.8-59.3-76.9-78c-11.8-7-23.1-13-33.9-18c-11.2-4.7-23.8-8.2-38-10.5
										c-28.1-5-73.5-5.8-100.6-2.6c-27.1,4.1-53.1,13.9-77.8,29.3C625.2,269.7,588.1,334.5,587.5,421v223.6h94.1v-96.7v-14.2
										c-0.1-2.9-0.1-5.8,0-8.6v-93c-1.2-49.1,17.4-87.2,55.8-114.1c15.4-13.2,35.5-21.5,60.3-25c24.8-2.6,34-2.6,55.4,0
										c21.8,2.9,39.8,9.8,54,20.6c38.4,24.6,57.6,64.1,57.6,118.5v101.6v14.2v96.7h94.1v-217
										C1058.6,379.7,1047.8,339.2,1026.1,306.2z"/>
								</g>
								<g>
									<rect x="21.4" y="194.7" width="94.1" height="449.9"/>
								</g>
							</g>
						</g>
					</g>
				</g>
			</g>
		</g>
		<g>
			<path d="M347.9,14.3c-6.8,9.3-21.7,26.7-44.4,39.6c-32.3,18.4-61.8,4.6-96.6,21c-0.3,0.2-0.6,0.3-1,0.5
				c-23.8,11.5-38.3,36.2-38.3,62.6l-0.2,190.5l11.9-11.9l0.6-73.5c0,0,4.8-19.8,35.7-33.8c31.9-14.4,52.4-6.6,81.7-16.8
				c35.2-12.3,54.7-32.9,54.7-32.9L352.2,15C352.2,12.7,349.4,12.3,347.9,14.3z"/>
		</g>
	</g>
</g>
<g id="Layer_2">
</g>
<g id="Layer_3">
</g>
<g id="Layer_4">
</g>
<g id="Layer_5">
</g>
</svg>
